<svg width="350" height="350" viewBox="0 0 350 350" fill="none" xmlns="http://www.w3.org/2000/svg">
<rect width="350" height="350" />
<path d="M109.611 265V40C109.611 26.1929 98.4185 15 84.6114 15L75 15C61.1929 15 50 26.1929 50 40V235V260C50 273.807 61.1929 285 75 285H109.611H169.223H263.446C277.253 285 288.446 296.193 288.446 310V310C288.446 323.807 277.253 335 263.446 335H50" stroke="#ffff00" stroke-width="10" stroke-linecap="round"/>
<path d="M154.577 40.8099C182.714 17.6099 254.128 31.1433 286.319 40.8099C310.163 63.2099 287.908 83.4766 273.8 90.8099L168.288 85.3099V134.31H263.07C287.511 134.31 279.165 158.31 273.8 174.31C269.508 187.11 201.67 179.643 168.288 174.31L161.731 220.31H295.26C298.837 231.977 303.844 257.51 295.26 266.31C284.53 277.31 129.541 254.81 125.964 233.81C122.387 212.81 119.407 69.8099 154.577 40.8099Z" fill="#ffff00"/>
</svg>
